<svg xmlns="http://www.w3.org/2000/svg" viewBox="0 0 32 32" width="32" height="32">
  <defs>
    <filter id="g" x="-40%" y="-40%" width="180%" height="180%">
      <feGaussianBlur stdDeviation="0.8" result="b"/>
      <feMerge><feMergeNode in="b"/><feMergeNode in="SourceGraphic"/></feMerge>
    </filter>
    <radialGradient id="bg" cx="50%" cy="50%" r="60%">
      <stop offset="0%" stop-color="#0a1a0a"/>
      <stop offset="100%" stop-color="#020802"/>
    </radialGradient>
    <linearGradient id="lg" x1="0%" y1="0%" x2="0%" y2="100%">
      <stop offset="0%" stop-color="#00ff46"/>
      <stop offset="100%" stop-color="#007a20"/>
    </linearGradient>
  </defs>

  <rect width="32" height="32" fill="url(#bg)" rx="4"/>

  <g stroke="#00ff46" stroke-width="1" fill="none" opacity="0.6">
    <path d="M 2 6 L 2 2 L 6 2"/>
    <path d="M 26 2 L 30 2 L 30 6"/>
    <path d="M 30 26 L 30 30 L 26 30"/>
    <path d="M 6 30 L 2 30 L 2 26"/>
  </g>

  <path d="M 13.5 6 C 7 6 4 9.5 4 16 C 4 22.5 7 26 13.5 26 L 14.5 23.5 C 9 23.5 6.5 21 6.5 16 C 6.5 11 9 8.5 14.5 8.5 Z" fill="url(#lg)" filter="url(#g)"/>

  <rect x="7" y="5.5" width="8" height="3" rx="0.5" fill="#00cc3a" filter="url(#g)"/>
  <rect x="7" y="23.5" width="8" height="3" rx="0.5" fill="#00cc3a" filter="url(#g)"/>

  <rect x="17" y="5.5" width="3" height="21" rx="0.5" fill="url(#lg)" filter="url(#g)"/>

  <path d="M 19 5.5 L 24.5 5.5 C 28 5.5 29 8 29 11 C 29 14 28 16.5 24.5 16.5 L 19 16.5 Z" fill="url(#lg)" filter="url(#g)"/>
  <path d="M 20 8 L 24 8 C 26.5 8 27 9.5 27 11 C 27 12.5 26.5 14 24 14 L 20 14 Z" fill="url(#bg)"/>

  <path d="M 20.5 15.5 L 25 16.5 L 29 26.5 L 26 26.5 L 22.5 17.5 L 20.5 17.5 Z" fill="url(#lg)" filter="url(#g)"/>

  <rect x="17" y="5.5" width="10" height="3" rx="0.5" fill="#00cc3a" filter="url(#g)"/>

  <circle cx="16" cy="16" r="1" fill="#00ff46" filter="url(#g)" opacity="0.8"/>
</svg>
